<?xml version="1.0" encoding="UTF-8"?>
<svg width="114px" height="40px" viewBox="0 0 114 40" version="1.1" xmlns="http://www.w3.org/2000/svg" xmlns:xlink="http://www.w3.org/1999/xlink">
    <!-- Generator: Sketch 57.1 (83088) - https://sketch.com -->
    <title>logo-htmlacademy</title>
    <desc>Created with Sketch.</desc>
    <g id="Styleguide" stroke="none" stroke-width="1" fill="none" fill-rule="evenodd">
        <g transform="translate(-499.000000, -2871.000000)" fill="#81B3D2" fill-rule="nonzero" id="logo-htmlacademy">
            <g transform="translate(499.000000, 2871.000000)">
                <path d="M47.0655963,29.0594737 C47.2630068,29.0514668 47.4583394,29.0151472 47.6458716,28.9515789 L47.6458716,30.3865789 C47.2482111,30.5403817 46.8260491,30.6172143 46.4009174,30.6131579 C45.6481775,30.6769003 44.9394456,30.2428956 44.6389908,29.5342105 C43.7036246,30.3099837 42.5302436,30.72271 41.3261468,30.6994737 C39.7330275,30.6994737 38.2559633,29.8039474 38.2559633,27.9481579 C38.2559633,25.65 40.366055,24.9378947 42.1701835,24.9378947 C42.9401581,24.9504704 43.7070337,25.0408217 44.459633,25.2076316 L44.459633,24.8839474 C44.459633,23.805 43.6577982,22.9742105 42.1490826,22.9742105 C41.0585215,22.9764145 39.9804413,23.2116153 38.983945,23.6647368 L38.983945,21.8305263 C40.0678146,21.4509488 41.2039562,21.2506246 42.3495413,21.2371053 C44.8394495,21.2371053 46.3692661,22.4455263 46.3692661,25.1752632 L46.3692661,28.4121053 C46.3546084,28.5667697 46.4009718,28.721014 46.4980508,28.8405532 C46.5951298,28.9600924 46.7348802,29.035021 46.8862385,29.0486842 L47.0655963,29.0486842 L47.0655963,29.0594737 Z M40.2711009,27.8402632 C40.2979829,28.2290018 40.4760704,28.5905124 40.7655451,28.8439649 C41.0550198,29.0974175 41.4317374,29.2216723 41.8114679,29.1889474 L41.9275229,29.1889474 C42.8818937,29.1906264 43.7973384,28.8021685 44.4701835,28.11 L44.4701835,26.5778947 C43.8419811,26.4413845 43.2026282,26.3655249 42.5605505,26.3513158 C41.5055046,26.3513158 40.2816514,26.7073684 40.2816514,27.8402632 L40.2816514,27.8402632 L40.2711009,27.8402632 Z M53.3114679,21.2478947 C54.2595543,21.2246358 55.1962393,21.4631803 56.0229358,21.9384211 L56.0229358,23.7942105 C55.3066037,23.2989246 54.4610163,23.0357417 53.5963303,23.0389474 C52.5199374,22.9724773 51.496296,23.5219892 50.9384549,24.46575 C50.3806138,25.4095108 50.3806138,26.591805 50.9384549,27.5355658 C51.496296,28.4793266 52.5199374,29.0288385 53.5963303,28.9623684 C54.4944641,28.9591382 55.3769198,28.7214566 56.1600917,28.2718421 L56.1600917,30.1168421 C55.2476604,30.5451608 54.2518662,30.7554729 53.2481651,30.7318421 C50.8050121,30.8920586 48.695731,29.0004036 48.5321101,26.5023684 C48.5321101,26.3513158 48.5321101,26.2038596 48.5321101,26.06 C48.4922947,24.8236341 48.9347044,23.6217922 49.7618902,22.7192021 C50.5890761,21.8166119 51.7331835,21.2873136 52.9422018,21.2478947 L53.3431193,21.2478947 L53.3114679,21.2478947 Z M66.1513761,29.0594737 C66.3487866,29.0514668 66.5441192,29.0151472 66.7316514,28.9515789 L66.7316514,30.3865789 C66.3339909,30.5403817 65.9118289,30.6172143 65.4866972,30.6131579 C64.7339573,30.6769003 64.0252255,30.2428956 63.7247706,29.5342105 C62.7894044,30.3099837 61.6160234,30.72271 60.4119266,30.6994737 C58.8188073,30.6994737 57.3417431,29.8039474 57.3417431,27.9481579 C57.3417431,25.65 59.4518349,24.9378947 61.2559633,24.9378947 C62.025938,24.9504704 62.7928135,25.0408217 63.5454128,25.2076316 L63.5454128,24.8839474 C63.5454128,23.805 62.743578,22.9742105 61.2348624,22.9742105 C60.1443013,22.9764145 59.0662211,23.2116153 58.0697248,23.6647368 L58.0697248,21.8305263 C59.1535945,21.4509488 60.2897361,21.2506246 61.4353211,21.2371053 C63.9252294,21.2371053 65.4550459,22.4455263 65.4550459,25.1752632 L65.4550459,28.4121053 C65.4403882,28.5667697 65.4867516,28.721014 65.5838306,28.8405532 C65.6809097,28.9600924 65.82066,29.035021 65.9720183,29.0486842 L66.1513761,29.0486842 L66.1513761,29.0594737 Z M59.3568807,27.8402632 C59.3836546,28.2310454 59.5632206,28.5943261 59.8550417,28.848095 C60.1468629,29.1018639 60.5263371,29.2247268 60.9077982,29.1889474 L61.0238532,29.1889474 C61.978224,29.1906264 62.8936687,28.8021685 63.5665138,28.11 L63.5665138,26.5778947 C62.9383113,26.4413845 62.2989584,26.3655249 61.6568807,26.3513158 C60.5385321,26.3513158 59.3779817,26.7073684 59.3779817,27.8402632 L59.3779817,27.8402632 L59.3568807,27.8402632 Z M77.0183486,17.3205263 L77.0183486,30.4836842 L75.2775229,30.4836842 L75.2775229,29.0594737 C74.4827679,30.135283 73.2299812,30.7537779 71.9119266,30.7210526 C69.4750723,30.552751 67.5825241,28.4822103 67.5825241,25.9844737 C67.5825241,23.4867371 69.4750723,21.4161964 71.9119266,21.2478947 C73.1194886,21.2051973 74.2817775,21.7202659 75.0770642,22.6505263 L75.0770642,17.3205263 L77.0183486,17.3205263 Z M72.2389908,22.9526316 C70.6307782,22.9526316 69.3270642,24.2858805 69.3270642,25.9305263 C69.3270642,27.5751722 70.6307782,28.9084211 72.2389908,28.9084211 C73.4673261,28.929616 74.5855937,28.1871285 75.0665138,27.0310526 L75.0665138,24.8731579 C74.5742086,23.738236 73.4741663,23.006587 72.2600917,23.0065789 L72.2389908,22.9526316 Z M83.3486239,21.2478947 C86.8408257,21.2478947 88.0541284,24.1394737 87.4844037,26.7397368 L80.9220183,26.7397368 C81.143578,28.3581579 82.683945,29.0163158 84.2876147,29.0163158 C85.2509024,29.0196119 86.2026665,28.8020883 87.0729358,28.3797368 L87.0729358,30.1060526 C86.0736034,30.5420784 84.9938669,30.7518759 83.9077982,30.7210526 C81.2385321,30.7210526 78.8963303,29.1889474 78.8963303,25.9521053 C78.8361831,24.7502312 79.2482377,23.5736221 80.0408163,22.6840609 C80.833395,21.7944997 81.9407526,21.2657764 83.1165138,21.2155263 L83.3486239,21.2155263 L83.3486239,21.2478947 Z M83.443578,22.9094737 C82.1215985,22.8103984 80.9703676,23.8236582 80.8692661,25.1752632 L80.8692661,25.24 L85.7752294,25.24 C85.8275189,24.6050928 85.6027649,23.979009 85.1611924,23.529514 C84.71962,23.080019 84.1063741,22.8530676 83.4857798,22.9094737 L83.443578,22.9094737 Z M89.4889908,30.4621053 L89.4889908,21.4960526 L91.2298165,21.4960526 L91.2298165,22.575 C91.9776543,21.7196618 93.0410172,21.2228758 94.162844,21.2047368 C95.2951298,21.132746 96.3712153,21.7163253 96.9481651,22.7152632 C97.7407354,21.8334891 98.8477083,21.3160913 100.018349,21.2802632 C100.951668,21.2327078 101.85935,21.6010522 102.506842,22.290113 C103.154334,22.9791738 103.478107,23.9213437 103.394495,24.8731579 L103.394495,30.4836842 L101.389908,30.4836842 L101.389908,24.9271053 C101.437106,24.4733447 101.305582,24.0190516 101.024428,23.6647091 C100.743274,23.3103667 100.335659,23.0851765 99.8917431,23.0389474 L99.6174312,23.0389474 C98.7512148,23.0941188 97.9525447,23.5360392 97.4334862,24.2473684 L97.4334862,30.4836842 L95.4288991,30.4836842 L95.4288991,24.9271053 C95.4728317,24.4699759 95.3356717,24.0139226 95.0481287,23.6610541 C94.7605858,23.3081856 94.3466797,23.0879787 93.8990826,23.0497368 L93.6880734,23.0497368 C92.7466437,23.1344326 91.8914735,23.6449129 91.356422,24.4415789 L91.356422,30.5160526 L89.5311927,30.5160526 L89.4889908,30.4621053 Z M111.972018,21.4744737 L113.976606,21.4744737 L109.851376,31.6813158 C108.901835,34.0226316 107.64633,34.7671053 106.316972,34.7671053 C105.925689,34.7631641 105.536197,34.7124694 105.156422,34.6160526 L105.156422,32.9221053 C105.44728,33.0111568 105.749614,33.0548063 106.053211,33.0515789 C107.002752,33.0515789 107.720183,32.3610526 108.237156,31.0015789 L108.416514,30.5484211 L104.19633,21.4852632 L106.306422,21.4852632 L109.323853,28.2718421 L111.972018,21.4744737 Z M40.8619266,1.63263158 L40.8619266,6.76842105 C41.6131164,5.9863957 42.6386228,5.54359491 43.7105505,5.53842105 C44.6823179,5.47907521 45.6329468,5.84494758 46.325328,6.54478094 C47.0177092,7.24461431 47.3865701,8.21243369 47.3399083,9.20684211 L47.3399083,14.7634211 L45.3669725,14.7634211 L45.3669725,9.46578947 C45.4231266,8.94896946 45.2754097,8.43058817 44.9565578,8.0255257 C44.637706,7.62046322 44.1740523,7.36217272 43.6683486,7.30789474 L43.3518349,7.30789474 C42.3456285,7.36978394 41.4321252,7.92949754 40.9041284,8.80763158 L40.9041284,14.7634211 L38.8995413,14.7634211 L38.8995413,1.63263158 L40.9041284,1.63263158 L40.8619266,1.63263158 Z M52.6889908,2.54973684 L52.6889908,5.78657895 L55.8541284,5.78657895 L55.8541284,7.51289474 L52.6889908,7.51289474 L52.6889908,11.6236842 C52.6889908,12.8105263 53.2165138,13.1989474 54.3559633,13.1989474 C54.9672018,13.1990133 55.5726763,13.0781061 56.1389908,12.8428947 L56.1389908,14.5692105 C55.3874958,14.82589 54.5996148,14.9534943 53.8073394,14.9468421 C53.0028089,15.0504703 52.1954894,14.7774767 51.6099534,14.2038002 C51.0244173,13.6301237 50.7231328,12.816967 50.7899083,11.9905263 L50.7899083,7.49131579 L49.1440367,7.49131579 L49.1440367,5.73263158 L50.7266055,5.73263158 L50.7266055,3.01368421 L52.6889908,2.54973684 Z M58.3862385,14.7526316 L58.3862385,5.75421053 L60.1376147,5.75421053 L60.1376147,6.83315789 C60.8810976,5.9765474 61.9403361,5.47599113 63.0600917,5.45210526 C64.1623632,5.38098888 65.2145534,5.93141813 65.803211,6.88710526 C66.5957812,6.00533123 67.7027542,5.48793344 68.8733945,5.45210526 C69.8137484,5.41461361 70.7232916,5.79858793 71.3639535,6.50352387 C72.0046154,7.20845981 72.312617,8.16417976 72.2073394,9.12052632 L72.2073394,14.7418421 L70.2027523,14.7418421 L70.2027523,9.18526316 C70.2499498,8.73150256 70.1184259,8.27720946 69.8372717,7.92286702 C69.5561176,7.56852459 69.1485032,7.34333438 68.7045872,7.29710526 L68.4619266,7.29710526 C67.5957102,7.3522767 66.7970401,7.79419706 66.2779817,8.50552632 L66.2779817,14.7418421 L64.2733945,14.7418421 L64.2733945,9.18526316 C64.320592,8.73150256 64.1890681,8.27720946 63.9079139,7.92286702 C63.6267598,7.56852459 63.2191454,7.34333438 62.7752294,7.29710526 L62.5325688,7.29710526 C61.5911392,7.38180106 60.7359689,7.8922813 60.2009174,8.68894737 L60.2009174,14.7634211 L58.3862385,14.7634211 L58.3862385,14.7526316 Z M75.0876147,1.62184211 L77.0183486,1.62184211 L77.0183486,14.7310526 L75.0876147,14.7310526 L75.0876147,1.62184211 Z M15.5197248,0.0573684211 L15.3509174,0.0573684211 L0,1.71894737 L0,30.4944737 L15.3509174,39.8381579 L30.7018349,30.4944737 L30.7018349,1.71894737 L15.5197248,0.0573684211 Z M28.7077982,29.2968421 L15.3509174,37.4321053 L2.00458716,29.3184211 L2.00458716,17.5147368 L15.2876147,25.6068421 L15.2876147,27.0310526 L6.18256881,21.5284211 L6.18256881,22.9418421 L15.340367,28.5631579 L15.340367,30.0628947 L6.19311927,24.4955263 L6.19311927,25.9521053 L15.3509174,31.5734211 L24.5825688,25.9197368 L24.5825688,19.8128947 L28.6972477,17.3205263 L28.6972477,29.3184211 L28.7077982,29.2968421 Z M28.7077982,15.7776316 L25.0362385,17.9355263 L23.3481651,19.0144737 L15.3087156,14.0836842 L15.3087156,15.4971053 L22.1559633,19.7265789 L22.1559633,19.7265789 L22.0082569,19.8236842 L20.953211,20.4063158 L15.2876147,16.9536842 L15.2876147,18.3994737 L19.7610092,21.1184211 L18.7059633,21.8413158 L15.3298165,19.7913158 L15.3298165,21.2047368 L17.5454128,22.5426316 L15.2981651,23.9021053 L2.11009174,15.8639474 L15.3087156,7.72868421 L28.7077982,15.7776316 Z M28.7077982,14.3534211 L15.2876147,6.27210526 L2.01513761,14.3534211 L2.01513761,3.56394737 L15.3614679,2.12894737 L28.7077982,3.56394737 L28.7077982,14.3534211 L28.7077982,14.3534211 Z" id="Shape"></path>
            </g>
        </g>
    </g>
</svg>